<mxfile host="app.diagrams.net" agent="Mozilla/5.0 (Windows NT 10.0; Win64; x64) AppleWebKit/537.36 (KHTML, like Gecko) Chrome/140.0.0.0 Safari/537.36 Edg/140.0.0.0" version="28.2.3">
  <diagram name="第 1 页" id="kepm6H9XeUZwfRZU9IKG">
    <mxGraphModel dx="1605" dy="743" grid="1" gridSize="10" guides="1" tooltips="1" connect="1" arrows="1" fold="1" page="0" pageScale="1" pageWidth="827" pageHeight="1169" math="0" shadow="0">
      <root>
        <mxCell id="0" />
        <mxCell id="1" parent="0" />
        <mxCell id="yN0ZqS6E7n7FuofRWHTt-188" value="" style="shape=orEllipse;perimeter=ellipsePerimeter;whiteSpace=wrap;html=1;backgroundOutline=1;rounded=1;glass=0;strokeColor=default;align=center;verticalAlign=middle;fontFamily=Helvetica;fontSize=12;fontColor=default;fillColor=default;" vertex="1" parent="1">
          <mxGeometry x="485" y="1155.63" width="20" height="20" as="geometry" />
        </mxCell>
        <mxCell id="yN0ZqS6E7n7FuofRWHTt-125" value="" style="rounded=1;whiteSpace=wrap;html=1;glass=0;dashed=1;dashPattern=8 8;" vertex="1" parent="1">
          <mxGeometry x="-170" width="1520" height="570" as="geometry" />
        </mxCell>
        <mxCell id="yN0ZqS6E7n7FuofRWHTt-117" value="Aux_classification" style="whiteSpace=wrap;html=1;rounded=1;glass=0;strokeColor=default;align=center;verticalAlign=middle;fontFamily=Helvetica;fontSize=12;fontColor=default;fillColor=default;" vertex="1" parent="1">
          <mxGeometry x="940" y="265" width="120" height="60" as="geometry" />
        </mxCell>
        <mxCell id="yN0ZqS6E7n7FuofRWHTt-26" value="" style="rounded=1;whiteSpace=wrap;html=1;glass=0;dashed=1;dashPattern=8 8;" vertex="1" parent="1">
          <mxGeometry x="145" y="330" width="705" height="200" as="geometry" />
        </mxCell>
        <mxCell id="yN0ZqS6E7n7FuofRWHTt-124" value="" style="rounded=1;whiteSpace=wrap;html=1;glass=0;dashed=1;dashPattern=8 8;" vertex="1" parent="1">
          <mxGeometry x="-150" y="45" width="230" height="485" as="geometry" />
        </mxCell>
        <mxCell id="yN0ZqS6E7n7FuofRWHTt-141" style="edgeStyle=orthogonalEdgeStyle;rounded=0;orthogonalLoop=1;jettySize=auto;html=1;exitX=1;exitY=0.5;exitDx=0;exitDy=0;fontFamily=Helvetica;fontSize=12;fontColor=default;" edge="1" parent="1" source="yN0ZqS6E7n7FuofRWHTt-116">
          <mxGeometry relative="1" as="geometry">
            <mxPoint x="1150" y="200" as="targetPoint" />
          </mxGeometry>
        </mxCell>
        <mxCell id="yN0ZqS6E7n7FuofRWHTt-116" value="Classification" style="whiteSpace=wrap;html=1;rounded=1;glass=0;strokeColor=default;align=center;verticalAlign=middle;fontFamily=Helvetica;fontSize=12;fontColor=default;fillColor=default;" vertex="1" parent="1">
          <mxGeometry x="940" y="170" width="120" height="60" as="geometry" />
        </mxCell>
        <mxCell id="yN0ZqS6E7n7FuofRWHTt-93" style="rounded=0;orthogonalLoop=1;jettySize=auto;html=1;exitX=1;exitY=0.5;exitDx=0;exitDy=0;entryX=0.5;entryY=0;entryDx=0;entryDy=0;fontFamily=Helvetica;fontSize=12;fontColor=default;" edge="1" parent="1" source="yN0ZqS6E7n7FuofRWHTt-84" target="yN0ZqS6E7n7FuofRWHTt-92">
          <mxGeometry relative="1" as="geometry">
            <Array as="points">
              <mxPoint x="640" y="400" />
              <mxPoint x="650" y="400" />
            </Array>
          </mxGeometry>
        </mxCell>
        <mxCell id="yN0ZqS6E7n7FuofRWHTt-84" value="" style="shape=sumEllipse;perimeter=ellipsePerimeter;whiteSpace=wrap;html=1;backgroundOutline=1;rounded=1;glass=0;strokeColor=default;align=center;verticalAlign=middle;fontFamily=Helvetica;fontSize=12;fontColor=default;fillColor=default;" vertex="1" parent="1">
          <mxGeometry x="590" y="390" width="20" height="20" as="geometry" />
        </mxCell>
        <mxCell id="yN0ZqS6E7n7FuofRWHTt-22" value="" style="rounded=1;whiteSpace=wrap;html=1;glass=0;dashed=1;dashPattern=8 8;" vertex="1" parent="1">
          <mxGeometry x="145" y="45" width="490" height="280" as="geometry" />
        </mxCell>
        <mxCell id="yN0ZqS6E7n7FuofRWHTt-17" style="edgeStyle=orthogonalEdgeStyle;rounded=0;orthogonalLoop=1;jettySize=auto;html=1;exitX=1;exitY=0.25;exitDx=0;exitDy=0;entryX=0;entryY=0.25;entryDx=0;entryDy=0;" edge="1" parent="1" source="487GCon45YnXLSpWe-tB-1" target="yN0ZqS6E7n7FuofRWHTt-2">
          <mxGeometry relative="1" as="geometry" />
        </mxCell>
        <mxCell id="yN0ZqS6E7n7FuofRWHTt-18" style="edgeStyle=orthogonalEdgeStyle;rounded=0;orthogonalLoop=1;jettySize=auto;html=1;exitX=1;exitY=0.75;exitDx=0;exitDy=0;entryX=0;entryY=0.25;entryDx=0;entryDy=0;" edge="1" parent="1" source="487GCon45YnXLSpWe-tB-1" target="yN0ZqS6E7n7FuofRWHTt-5">
          <mxGeometry relative="1" as="geometry" />
        </mxCell>
        <mxCell id="487GCon45YnXLSpWe-tB-1" value="HSI" style="rounded=0;whiteSpace=wrap;html=1;" parent="1" vertex="1">
          <mxGeometry x="-130" y="180" width="70" height="60" as="geometry" />
        </mxCell>
        <mxCell id="yN0ZqS6E7n7FuofRWHTt-19" style="edgeStyle=orthogonalEdgeStyle;rounded=0;orthogonalLoop=1;jettySize=auto;html=1;exitX=1;exitY=0.25;exitDx=0;exitDy=0;entryX=0;entryY=0.75;entryDx=0;entryDy=0;" edge="1" parent="1" source="yN0ZqS6E7n7FuofRWHTt-1" target="yN0ZqS6E7n7FuofRWHTt-2">
          <mxGeometry relative="1" as="geometry" />
        </mxCell>
        <mxCell id="yN0ZqS6E7n7FuofRWHTt-20" style="edgeStyle=orthogonalEdgeStyle;rounded=0;orthogonalLoop=1;jettySize=auto;html=1;exitX=1;exitY=0.75;exitDx=0;exitDy=0;entryX=0;entryY=0.75;entryDx=0;entryDy=0;" edge="1" parent="1" source="yN0ZqS6E7n7FuofRWHTt-1" target="yN0ZqS6E7n7FuofRWHTt-5">
          <mxGeometry relative="1" as="geometry" />
        </mxCell>
        <mxCell id="yN0ZqS6E7n7FuofRWHTt-1" value="LIDAR" style="rounded=0;whiteSpace=wrap;html=1;" vertex="1" parent="1">
          <mxGeometry x="-130" y="390" width="70" height="60" as="geometry" />
        </mxCell>
        <mxCell id="yN0ZqS6E7n7FuofRWHTt-7" style="edgeStyle=orthogonalEdgeStyle;rounded=0;orthogonalLoop=1;jettySize=auto;html=1;exitX=1;exitY=0.25;exitDx=0;exitDy=0;" edge="1" parent="1" source="yN0ZqS6E7n7FuofRWHTt-2">
          <mxGeometry relative="1" as="geometry">
            <mxPoint x="160" y="195" as="targetPoint" />
          </mxGeometry>
        </mxCell>
        <mxCell id="yN0ZqS6E7n7FuofRWHTt-8" style="edgeStyle=orthogonalEdgeStyle;rounded=0;orthogonalLoop=1;jettySize=auto;html=1;exitX=1;exitY=0.75;exitDx=0;exitDy=0;" edge="1" parent="1" source="yN0ZqS6E7n7FuofRWHTt-2">
          <mxGeometry relative="1" as="geometry">
            <mxPoint x="160" y="225" as="targetPoint" />
          </mxGeometry>
        </mxCell>
        <mxCell id="yN0ZqS6E7n7FuofRWHTt-2" value="3D Conv+BN+Relu" style="rounded=1;whiteSpace=wrap;html=1;" vertex="1" parent="1">
          <mxGeometry x="-20" y="180" width="90" height="60" as="geometry" />
        </mxCell>
        <mxCell id="yN0ZqS6E7n7FuofRWHTt-9" style="edgeStyle=orthogonalEdgeStyle;rounded=0;orthogonalLoop=1;jettySize=auto;html=1;exitX=1;exitY=0.25;exitDx=0;exitDy=0;" edge="1" parent="1" source="yN0ZqS6E7n7FuofRWHTt-5">
          <mxGeometry relative="1" as="geometry">
            <mxPoint x="160" y="405" as="targetPoint" />
          </mxGeometry>
        </mxCell>
        <mxCell id="yN0ZqS6E7n7FuofRWHTt-10" style="edgeStyle=orthogonalEdgeStyle;rounded=0;orthogonalLoop=1;jettySize=auto;html=1;exitX=1;exitY=0.75;exitDx=0;exitDy=0;" edge="1" parent="1" source="yN0ZqS6E7n7FuofRWHTt-5">
          <mxGeometry relative="1" as="geometry">
            <mxPoint x="160" y="435" as="targetPoint" />
          </mxGeometry>
        </mxCell>
        <mxCell id="yN0ZqS6E7n7FuofRWHTt-5" value="3D Conv+BN+Relu" style="rounded=1;whiteSpace=wrap;html=1;" vertex="1" parent="1">
          <mxGeometry x="-20" y="390" width="90" height="60" as="geometry" />
        </mxCell>
        <mxCell id="yN0ZqS6E7n7FuofRWHTt-6" value="&amp;nbsp;stage* 3" style="text;html=1;align=center;verticalAlign=middle;resizable=0;points=[];autosize=1;strokeColor=none;fillColor=none;" vertex="1" parent="1">
          <mxGeometry x="-10" y="150" width="70" height="30" as="geometry" />
        </mxCell>
        <mxCell id="yN0ZqS6E7n7FuofRWHTt-11" value="Hsi_main" style="text;html=1;align=center;verticalAlign=middle;resizable=0;points=[];autosize=1;strokeColor=none;fillColor=none;" vertex="1" parent="1">
          <mxGeometry x="75" y="170" width="70" height="30" as="geometry" />
        </mxCell>
        <mxCell id="yN0ZqS6E7n7FuofRWHTt-13" value="Lidar_main" style="text;html=1;align=center;verticalAlign=middle;resizable=0;points=[];autosize=1;strokeColor=none;fillColor=none;" vertex="1" parent="1">
          <mxGeometry x="70" y="220" width="80" height="30" as="geometry" />
        </mxCell>
        <mxCell id="yN0ZqS6E7n7FuofRWHTt-14" value="Hsi_Aux" style="text;html=1;align=center;verticalAlign=middle;resizable=0;points=[];autosize=1;strokeColor=none;fillColor=none;" vertex="1" parent="1">
          <mxGeometry x="80" y="380" width="70" height="30" as="geometry" />
        </mxCell>
        <mxCell id="yN0ZqS6E7n7FuofRWHTt-15" value="Lidar_Aux" style="text;html=1;align=center;verticalAlign=middle;resizable=0;points=[];autosize=1;strokeColor=none;fillColor=none;" vertex="1" parent="1">
          <mxGeometry x="75" y="430" width="80" height="30" as="geometry" />
        </mxCell>
        <mxCell id="yN0ZqS6E7n7FuofRWHTt-30" style="edgeStyle=orthogonalEdgeStyle;rounded=0;orthogonalLoop=1;jettySize=auto;html=1;exitX=1;exitY=0.25;exitDx=0;exitDy=0;entryX=0;entryY=0.75;entryDx=0;entryDy=0;fontFamily=Helvetica;fontSize=12;fontColor=default;" edge="1" parent="1" source="yN0ZqS6E7n7FuofRWHTt-23" target="yN0ZqS6E7n7FuofRWHTt-27">
          <mxGeometry relative="1" as="geometry" />
        </mxCell>
        <mxCell id="yN0ZqS6E7n7FuofRWHTt-23" value="2D FFT" style="rounded=1;whiteSpace=wrap;html=1;arcSize=0;" vertex="1" parent="1">
          <mxGeometry x="160" y="130" width="40" height="160" as="geometry" />
        </mxCell>
        <mxCell id="yN0ZqS6E7n7FuofRWHTt-43" style="edgeStyle=orthogonalEdgeStyle;rounded=0;orthogonalLoop=1;jettySize=auto;html=1;exitX=1;exitY=0.25;exitDx=0;exitDy=0;entryX=0;entryY=0.5;entryDx=0;entryDy=0;fontFamily=Helvetica;fontSize=12;fontColor=default;" edge="1" parent="1" source="yN0ZqS6E7n7FuofRWHTt-27" target="yN0ZqS6E7n7FuofRWHTt-38">
          <mxGeometry relative="1" as="geometry" />
        </mxCell>
        <mxCell id="yN0ZqS6E7n7FuofRWHTt-44" style="edgeStyle=orthogonalEdgeStyle;rounded=0;orthogonalLoop=1;jettySize=auto;html=1;exitX=1;exitY=0.75;exitDx=0;exitDy=0;entryX=0;entryY=0.5;entryDx=0;entryDy=0;fontFamily=Helvetica;fontSize=12;fontColor=default;" edge="1" parent="1" source="yN0ZqS6E7n7FuofRWHTt-27" target="yN0ZqS6E7n7FuofRWHTt-40">
          <mxGeometry relative="1" as="geometry" />
        </mxCell>
        <mxCell id="yN0ZqS6E7n7FuofRWHTt-27" value="HPF" style="rounded=1;whiteSpace=wrap;html=1;glass=0;strokeColor=default;align=center;verticalAlign=middle;fontFamily=Helvetica;fontSize=12;fontColor=default;fillColor=default;" vertex="1" parent="1">
          <mxGeometry x="230" y="140" width="75" height="40" as="geometry" />
        </mxCell>
        <mxCell id="yN0ZqS6E7n7FuofRWHTt-45" style="edgeStyle=orthogonalEdgeStyle;rounded=0;orthogonalLoop=1;jettySize=auto;html=1;exitX=1;exitY=0.25;exitDx=0;exitDy=0;entryX=0;entryY=0.5;entryDx=0;entryDy=0;fontFamily=Helvetica;fontSize=12;fontColor=default;" edge="1" parent="1" source="yN0ZqS6E7n7FuofRWHTt-28" target="yN0ZqS6E7n7FuofRWHTt-39">
          <mxGeometry relative="1" as="geometry" />
        </mxCell>
        <mxCell id="yN0ZqS6E7n7FuofRWHTt-46" style="edgeStyle=orthogonalEdgeStyle;rounded=0;orthogonalLoop=1;jettySize=auto;html=1;exitX=1;exitY=0.75;exitDx=0;exitDy=0;fontFamily=Helvetica;fontSize=12;fontColor=default;" edge="1" parent="1" source="yN0ZqS6E7n7FuofRWHTt-28" target="yN0ZqS6E7n7FuofRWHTt-42">
          <mxGeometry relative="1" as="geometry" />
        </mxCell>
        <mxCell id="yN0ZqS6E7n7FuofRWHTt-28" value="LPF" style="rounded=1;whiteSpace=wrap;html=1;glass=0;strokeColor=default;align=center;verticalAlign=middle;fontFamily=Helvetica;fontSize=12;fontColor=default;fillColor=default;" vertex="1" parent="1">
          <mxGeometry x="230" y="240" width="75" height="40" as="geometry" />
        </mxCell>
        <mxCell id="yN0ZqS6E7n7FuofRWHTt-34" value="" style="endArrow=classic;html=1;rounded=0;fontFamily=Helvetica;fontSize=12;fontColor=default;entryX=0;entryY=0.25;entryDx=0;entryDy=0;" edge="1" parent="1" target="yN0ZqS6E7n7FuofRWHTt-27">
          <mxGeometry width="50" height="50" relative="1" as="geometry">
            <mxPoint x="200" y="150" as="sourcePoint" />
            <mxPoint x="250" y="110" as="targetPoint" />
            <Array as="points" />
          </mxGeometry>
        </mxCell>
        <mxCell id="yN0ZqS6E7n7FuofRWHTt-35" value="" style="endArrow=classic;html=1;rounded=0;fontFamily=Helvetica;fontSize=12;fontColor=default;entryX=0;entryY=0.25;entryDx=0;entryDy=0;exitX=1;exitY=0.75;exitDx=0;exitDy=0;" edge="1" parent="1" source="yN0ZqS6E7n7FuofRWHTt-23" target="yN0ZqS6E7n7FuofRWHTt-28">
          <mxGeometry width="50" height="50" relative="1" as="geometry">
            <mxPoint x="210" y="140" as="sourcePoint" />
            <mxPoint x="240" y="140" as="targetPoint" />
            <Array as="points" />
          </mxGeometry>
        </mxCell>
        <mxCell id="yN0ZqS6E7n7FuofRWHTt-36" value="" style="endArrow=classic;html=1;rounded=0;fontFamily=Helvetica;fontSize=12;fontColor=default;entryX=0;entryY=0.75;entryDx=0;entryDy=0;exitX=0.992;exitY=0.873;exitDx=0;exitDy=0;exitPerimeter=0;" edge="1" parent="1" source="yN0ZqS6E7n7FuofRWHTt-23" target="yN0ZqS6E7n7FuofRWHTt-28">
          <mxGeometry width="50" height="50" relative="1" as="geometry">
            <mxPoint x="210" y="240" as="sourcePoint" />
            <mxPoint x="240" y="240" as="targetPoint" />
            <Array as="points" />
          </mxGeometry>
        </mxCell>
        <mxCell id="yN0ZqS6E7n7FuofRWHTt-47" style="edgeStyle=orthogonalEdgeStyle;rounded=0;orthogonalLoop=1;jettySize=auto;html=1;exitX=1;exitY=0.5;exitDx=0;exitDy=0;fontFamily=Helvetica;fontSize=12;fontColor=default;" edge="1" parent="1" source="yN0ZqS6E7n7FuofRWHTt-51">
          <mxGeometry relative="1" as="geometry">
            <mxPoint x="510" y="160" as="targetPoint" />
          </mxGeometry>
        </mxCell>
        <mxCell id="yN0ZqS6E7n7FuofRWHTt-38" value="HSI_High" style="rounded=1;whiteSpace=wrap;html=1;glass=0;strokeColor=default;align=center;verticalAlign=middle;fontFamily=Helvetica;fontSize=12;fontColor=default;fillColor=default;" vertex="1" parent="1">
          <mxGeometry x="350" y="110" width="70" height="30" as="geometry" />
        </mxCell>
        <mxCell id="yN0ZqS6E7n7FuofRWHTt-55" style="edgeStyle=orthogonalEdgeStyle;rounded=0;orthogonalLoop=1;jettySize=auto;html=1;exitX=1;exitY=0.5;exitDx=0;exitDy=0;entryX=0.5;entryY=0;entryDx=0;entryDy=0;fontFamily=Helvetica;fontSize=12;fontColor=default;" edge="1" parent="1" source="yN0ZqS6E7n7FuofRWHTt-39" target="yN0ZqS6E7n7FuofRWHTt-54">
          <mxGeometry relative="1" as="geometry">
            <Array as="points">
              <mxPoint x="500" y="235" />
            </Array>
          </mxGeometry>
        </mxCell>
        <mxCell id="yN0ZqS6E7n7FuofRWHTt-39" value="HSI_Low" style="rounded=1;whiteSpace=wrap;html=1;glass=0;strokeColor=default;align=center;verticalAlign=middle;fontFamily=Helvetica;fontSize=12;fontColor=default;fillColor=default;" vertex="1" parent="1">
          <mxGeometry x="350" y="220" width="70" height="30" as="geometry" />
        </mxCell>
        <mxCell id="yN0ZqS6E7n7FuofRWHTt-53" style="edgeStyle=orthogonalEdgeStyle;rounded=0;orthogonalLoop=1;jettySize=auto;html=1;exitX=1;exitY=0.5;exitDx=0;exitDy=0;entryX=0.5;entryY=1;entryDx=0;entryDy=0;fontFamily=Helvetica;fontSize=12;fontColor=default;" edge="1" parent="1" source="yN0ZqS6E7n7FuofRWHTt-40" target="yN0ZqS6E7n7FuofRWHTt-51">
          <mxGeometry relative="1" as="geometry">
            <Array as="points">
              <mxPoint x="390" y="190" />
              <mxPoint x="500" y="190" />
            </Array>
          </mxGeometry>
        </mxCell>
        <mxCell id="yN0ZqS6E7n7FuofRWHTt-40" value="Lidar_High" style="rounded=1;whiteSpace=wrap;html=1;glass=0;strokeColor=default;align=center;verticalAlign=middle;fontFamily=Helvetica;fontSize=12;fontColor=default;fillColor=default;" vertex="1" parent="1">
          <mxGeometry x="350" y="170" width="70" height="30" as="geometry" />
        </mxCell>
        <mxCell id="yN0ZqS6E7n7FuofRWHTt-56" style="edgeStyle=orthogonalEdgeStyle;rounded=0;orthogonalLoop=1;jettySize=auto;html=1;exitX=1;exitY=0.5;exitDx=0;exitDy=0;entryX=0.5;entryY=1;entryDx=0;entryDy=0;fontFamily=Helvetica;fontSize=12;fontColor=default;" edge="1" parent="1" source="yN0ZqS6E7n7FuofRWHTt-42" target="yN0ZqS6E7n7FuofRWHTt-54">
          <mxGeometry relative="1" as="geometry" />
        </mxCell>
        <mxCell id="yN0ZqS6E7n7FuofRWHTt-42" value="Lidar_Low" style="rounded=1;whiteSpace=wrap;html=1;glass=0;strokeColor=default;align=center;verticalAlign=middle;fontFamily=Helvetica;fontSize=12;fontColor=default;fillColor=default;" vertex="1" parent="1">
          <mxGeometry x="350" y="280" width="70" height="30" as="geometry" />
        </mxCell>
        <mxCell id="yN0ZqS6E7n7FuofRWHTt-52" value="" style="edgeStyle=orthogonalEdgeStyle;rounded=0;orthogonalLoop=1;jettySize=auto;html=1;exitX=1;exitY=0.5;exitDx=0;exitDy=0;fontFamily=Helvetica;fontSize=12;fontColor=default;" edge="1" parent="1" source="yN0ZqS6E7n7FuofRWHTt-38" target="yN0ZqS6E7n7FuofRWHTt-51">
          <mxGeometry relative="1" as="geometry">
            <mxPoint x="510" y="160" as="targetPoint" />
            <mxPoint x="390" y="125" as="sourcePoint" />
          </mxGeometry>
        </mxCell>
        <mxCell id="yN0ZqS6E7n7FuofRWHTt-57" style="edgeStyle=orthogonalEdgeStyle;rounded=0;orthogonalLoop=1;jettySize=auto;html=1;exitX=1;exitY=0.5;exitDx=0;exitDy=0;fontFamily=Helvetica;fontSize=12;fontColor=default;" edge="1" parent="1" source="yN0ZqS6E7n7FuofRWHTt-51">
          <mxGeometry relative="1" as="geometry">
            <mxPoint x="570" y="160" as="targetPoint" />
          </mxGeometry>
        </mxCell>
        <mxCell id="yN0ZqS6E7n7FuofRWHTt-51" value="" style="shape=lineEllipse;perimeter=ellipsePerimeter;whiteSpace=wrap;html=1;backgroundOutline=1;rounded=1;glass=0;strokeColor=default;align=center;verticalAlign=middle;fontFamily=Helvetica;fontSize=12;fontColor=default;fillColor=default;" vertex="1" parent="1">
          <mxGeometry x="490" y="150" width="20" height="20" as="geometry" />
        </mxCell>
        <mxCell id="yN0ZqS6E7n7FuofRWHTt-61" style="edgeStyle=orthogonalEdgeStyle;rounded=0;orthogonalLoop=1;jettySize=auto;html=1;exitX=1;exitY=0.5;exitDx=0;exitDy=0;fontFamily=Helvetica;fontSize=12;fontColor=default;" edge="1" parent="1" source="yN0ZqS6E7n7FuofRWHTt-54">
          <mxGeometry relative="1" as="geometry">
            <mxPoint x="570" y="260" as="targetPoint" />
          </mxGeometry>
        </mxCell>
        <mxCell id="yN0ZqS6E7n7FuofRWHTt-54" value="" style="shape=lineEllipse;perimeter=ellipsePerimeter;whiteSpace=wrap;html=1;backgroundOutline=1;rounded=1;glass=0;strokeColor=default;align=center;verticalAlign=middle;fontFamily=Helvetica;fontSize=12;fontColor=default;fillColor=default;" vertex="1" parent="1">
          <mxGeometry x="490" y="250" width="20" height="20" as="geometry" />
        </mxCell>
        <mxCell id="yN0ZqS6E7n7FuofRWHTt-59" style="edgeStyle=orthogonalEdgeStyle;rounded=0;orthogonalLoop=1;jettySize=auto;html=1;exitX=1;exitY=0.5;exitDx=0;exitDy=0;fontFamily=Helvetica;fontSize=12;fontColor=default;" edge="1" parent="1" source="yN0ZqS6E7n7FuofRWHTt-58">
          <mxGeometry relative="1" as="geometry">
            <mxPoint x="410" y="420" as="targetPoint" />
          </mxGeometry>
        </mxCell>
        <mxCell id="yN0ZqS6E7n7FuofRWHTt-58" value="PGSE增强" style="rounded=1;whiteSpace=wrap;html=1;glass=0;strokeColor=default;align=center;verticalAlign=middle;fontFamily=Helvetica;fontSize=12;fontColor=default;fillColor=default;" vertex="1" parent="1">
          <mxGeometry x="160" y="390" width="150" height="60" as="geometry" />
        </mxCell>
        <mxCell id="yN0ZqS6E7n7FuofRWHTt-60" value="Common_feat" style="text;html=1;align=center;verticalAlign=middle;resizable=0;points=[];autosize=1;strokeColor=none;fillColor=none;fontFamily=Helvetica;fontSize=12;fontColor=default;" vertex="1" parent="1">
          <mxGeometry x="300" y="420" width="100" height="30" as="geometry" />
        </mxCell>
        <mxCell id="yN0ZqS6E7n7FuofRWHTt-74" style="edgeStyle=orthogonalEdgeStyle;rounded=0;orthogonalLoop=1;jettySize=auto;html=1;exitX=0.958;exitY=0.844;exitDx=0;exitDy=0;fontFamily=Helvetica;fontSize=12;fontColor=default;entryX=0;entryY=0.25;entryDx=0;entryDy=0;exitPerimeter=0;" edge="1" parent="1" source="yN0ZqS6E7n7FuofRWHTt-62" target="yN0ZqS6E7n7FuofRWHTt-75">
          <mxGeometry relative="1" as="geometry">
            <mxPoint x="658" y="250" as="sourcePoint" />
            <mxPoint x="400" y="348.3399999999999" as="targetPoint" />
            <Array as="points">
              <mxPoint x="608" y="260" />
              <mxPoint x="700" y="260" />
              <mxPoint x="700" y="340" />
              <mxPoint x="370" y="340" />
              <mxPoint x="370" y="403" />
            </Array>
          </mxGeometry>
        </mxCell>
        <mxCell id="yN0ZqS6E7n7FuofRWHTt-137" style="edgeStyle=orthogonalEdgeStyle;rounded=0;orthogonalLoop=1;jettySize=auto;html=1;exitX=1;exitY=0.25;exitDx=0;exitDy=0;entryX=0.5;entryY=0;entryDx=0;entryDy=0;fontFamily=Helvetica;fontSize=12;fontColor=default;" edge="1" parent="1" source="yN0ZqS6E7n7FuofRWHTt-62" target="yN0ZqS6E7n7FuofRWHTt-105">
          <mxGeometry relative="1" as="geometry">
            <Array as="points">
              <mxPoint x="900" y="170" />
            </Array>
          </mxGeometry>
        </mxCell>
        <mxCell id="yN0ZqS6E7n7FuofRWHTt-62" value="IFFT" style="rounded=1;whiteSpace=wrap;html=1;arcSize=0;" vertex="1" parent="1">
          <mxGeometry x="570" y="130" width="40" height="160" as="geometry" />
        </mxCell>
        <mxCell id="yN0ZqS6E7n7FuofRWHTt-65" value="High_diff" style="text;html=1;align=center;verticalAlign=middle;resizable=0;points=[];autosize=1;strokeColor=none;fillColor=none;fontFamily=Helvetica;fontSize=12;fontColor=default;" vertex="1" parent="1">
          <mxGeometry x="630" y="140" width="70" height="30" as="geometry" />
        </mxCell>
        <mxCell id="yN0ZqS6E7n7FuofRWHTt-67" value="low_diff" style="text;html=1;align=center;verticalAlign=middle;resizable=0;points=[];autosize=1;strokeColor=none;fillColor=none;fontFamily=Helvetica;fontSize=12;fontColor=default;" vertex="1" parent="1">
          <mxGeometry x="630" y="230" width="60" height="30" as="geometry" />
        </mxCell>
        <mxCell id="yN0ZqS6E7n7FuofRWHTt-88" style="edgeStyle=orthogonalEdgeStyle;rounded=0;orthogonalLoop=1;jettySize=auto;html=1;exitX=0.5;exitY=0;exitDx=0;exitDy=0;entryX=0.5;entryY=0;entryDx=0;entryDy=0;fontFamily=Helvetica;fontSize=12;fontColor=default;" edge="1" parent="1" source="yN0ZqS6E7n7FuofRWHTt-75" target="yN0ZqS6E7n7FuofRWHTt-84">
          <mxGeometry relative="1" as="geometry" />
        </mxCell>
        <mxCell id="yN0ZqS6E7n7FuofRWHTt-89" style="edgeStyle=orthogonalEdgeStyle;rounded=0;orthogonalLoop=1;jettySize=auto;html=1;exitX=0.5;exitY=1;exitDx=0;exitDy=0;entryX=0.5;entryY=1;entryDx=0;entryDy=0;fontFamily=Helvetica;fontSize=12;fontColor=default;" edge="1" parent="1" source="yN0ZqS6E7n7FuofRWHTt-75" target="yN0ZqS6E7n7FuofRWHTt-85">
          <mxGeometry relative="1" as="geometry" />
        </mxCell>
        <mxCell id="yN0ZqS6E7n7FuofRWHTt-75" value="concat" style="rounded=1;whiteSpace=wrap;html=1;glass=0;strokeColor=default;align=center;verticalAlign=middle;fontFamily=Helvetica;fontSize=12;fontColor=default;fillColor=default;" vertex="1" parent="1">
          <mxGeometry x="410" y="380" width="40" height="90" as="geometry" />
        </mxCell>
        <mxCell id="yN0ZqS6E7n7FuofRWHTt-82" style="rounded=0;orthogonalLoop=1;jettySize=auto;html=1;fontFamily=Helvetica;fontSize=12;fontColor=default;" edge="1" parent="1">
          <mxGeometry relative="1" as="geometry">
            <mxPoint x="590" y="403" as="targetPoint" />
            <mxPoint x="500" y="403" as="sourcePoint" />
          </mxGeometry>
        </mxCell>
        <mxCell id="yN0ZqS6E7n7FuofRWHTt-83" style="rounded=0;orthogonalLoop=1;jettySize=auto;html=1;exitX=1;exitY=0.778;exitDx=0;exitDy=0;fontFamily=Helvetica;fontSize=12;fontColor=default;entryX=0;entryY=0.5;entryDx=0;entryDy=0;exitPerimeter=0;" edge="1" parent="1" source="yN0ZqS6E7n7FuofRWHTt-77" target="yN0ZqS6E7n7FuofRWHTt-85">
          <mxGeometry relative="1" as="geometry">
            <mxPoint x="590" y="440" as="targetPoint" />
          </mxGeometry>
        </mxCell>
        <mxCell id="yN0ZqS6E7n7FuofRWHTt-77" value="softmax" style="rounded=1;whiteSpace=wrap;html=1;glass=0;strokeColor=default;align=center;verticalAlign=middle;fontFamily=Helvetica;fontSize=12;fontColor=default;fillColor=default;" vertex="1" parent="1">
          <mxGeometry x="460" y="380" width="40" height="90" as="geometry" />
        </mxCell>
        <mxCell id="yN0ZqS6E7n7FuofRWHTt-94" style="edgeStyle=orthogonalEdgeStyle;rounded=0;orthogonalLoop=1;jettySize=auto;html=1;exitX=1;exitY=0.5;exitDx=0;exitDy=0;entryX=0.5;entryY=1;entryDx=0;entryDy=0;fontFamily=Helvetica;fontSize=12;fontColor=default;" edge="1" parent="1" source="yN0ZqS6E7n7FuofRWHTt-85" target="yN0ZqS6E7n7FuofRWHTt-92">
          <mxGeometry relative="1" as="geometry">
            <Array as="points">
              <mxPoint x="610" y="455" />
              <mxPoint x="650" y="455" />
            </Array>
          </mxGeometry>
        </mxCell>
        <mxCell id="yN0ZqS6E7n7FuofRWHTt-85" value="&lt;span style=&quot;color: rgba(0, 0, 0, 0); font-family: monospace; font-size: 0px; text-align: start; text-wrap-mode: nowrap;&quot;&gt;%3CmxGraphModel%3E%3Croot%3E%3CmxCell%20id%3D%220%22%2F%3E%3CmxCell%20id%3D%221%22%20parent%3D%220%22%2F%3E%3CmxCell%20id%3D%222%22%20value%3D%22%22%20style%3D%22rounded%3D1%3BwhiteSpace%3Dwrap%3Bhtml%3D1%3Bglass%3D0%3Bdashed%3D1%3BdashPattern%3D8%208%3B%22%20vertex%3D%221%22%20parent%3D%221%22%3E%3CmxGeometry%20x%3D%22140%22%20y%3D%2245%22%20width%3D%22490%22%20height%3D%22280%22%20as%3D%22geometry%22%2F%3E%3C%2FmxCell%3E%3C%2Froot%3E%3C%2FmxGraphModel%3E&lt;/span&gt;" style="shape=sumEllipse;perimeter=ellipsePerimeter;whiteSpace=wrap;html=1;backgroundOutline=1;rounded=1;glass=0;strokeColor=default;align=center;verticalAlign=middle;fontFamily=Helvetica;fontSize=12;fontColor=default;fillColor=default;" vertex="1" parent="1">
          <mxGeometry x="590" y="440" width="20" height="20" as="geometry" />
        </mxCell>
        <mxCell id="yN0ZqS6E7n7FuofRWHTt-95" style="rounded=0;orthogonalLoop=1;jettySize=auto;html=1;exitX=1;exitY=0.5;exitDx=0;exitDy=0;fontFamily=Helvetica;fontSize=12;fontColor=default;entryX=0;entryY=0.5;entryDx=0;entryDy=0;" edge="1" parent="1">
          <mxGeometry relative="1" as="geometry">
            <mxPoint x="730" y="430" as="targetPoint" />
            <mxPoint x="660" y="430" as="sourcePoint" />
            <Array as="points">
              <mxPoint x="710" y="430" />
            </Array>
          </mxGeometry>
        </mxCell>
        <mxCell id="yN0ZqS6E7n7FuofRWHTt-92" value="" style="shape=orEllipse;perimeter=ellipsePerimeter;whiteSpace=wrap;html=1;backgroundOutline=1;rounded=1;glass=0;strokeColor=default;align=center;verticalAlign=middle;fontFamily=Helvetica;fontSize=12;fontColor=default;fillColor=default;" vertex="1" parent="1">
          <mxGeometry x="640" y="415" width="20" height="20" as="geometry" />
        </mxCell>
        <mxCell id="yN0ZqS6E7n7FuofRWHTt-106" style="edgeStyle=orthogonalEdgeStyle;rounded=0;orthogonalLoop=1;jettySize=auto;html=1;exitX=1;exitY=0.25;exitDx=0;exitDy=0;entryX=0.5;entryY=1;entryDx=0;entryDy=0;fontFamily=Helvetica;fontSize=12;fontColor=default;" edge="1" parent="1" source="yN0ZqS6E7n7FuofRWHTt-96" target="yN0ZqS6E7n7FuofRWHTt-105">
          <mxGeometry relative="1" as="geometry">
            <Array as="points">
              <mxPoint x="900" y="410" />
            </Array>
          </mxGeometry>
        </mxCell>
        <mxCell id="yN0ZqS6E7n7FuofRWHTt-139" style="edgeStyle=orthogonalEdgeStyle;rounded=0;orthogonalLoop=1;jettySize=auto;html=1;exitX=1;exitY=0.75;exitDx=0;exitDy=0;entryX=0;entryY=0.75;entryDx=0;entryDy=0;fontFamily=Helvetica;fontSize=12;fontColor=default;" edge="1" parent="1" source="yN0ZqS6E7n7FuofRWHTt-96" target="yN0ZqS6E7n7FuofRWHTt-117">
          <mxGeometry relative="1" as="geometry">
            <Array as="points">
              <mxPoint x="920" y="440" />
              <mxPoint x="920" y="310" />
            </Array>
          </mxGeometry>
        </mxCell>
        <mxCell id="yN0ZqS6E7n7FuofRWHTt-96" value="INN" style="rounded=1;whiteSpace=wrap;html=1;glass=0;strokeColor=default;align=center;verticalAlign=middle;fontFamily=Helvetica;fontSize=12;fontColor=default;fillColor=default;" vertex="1" parent="1">
          <mxGeometry x="730" y="395" width="70" height="60" as="geometry" />
        </mxCell>
        <mxCell id="yN0ZqS6E7n7FuofRWHTt-100" value="domain_spacifc" style="text;html=1;align=center;verticalAlign=middle;resizable=0;points=[];autosize=1;strokeColor=none;fillColor=none;fontFamily=Helvetica;fontSize=12;fontColor=default;" vertex="1" parent="1">
          <mxGeometry x="790" y="380" width="110" height="30" as="geometry" />
        </mxCell>
        <mxCell id="yN0ZqS6E7n7FuofRWHTt-103" value="domain_invariar" style="text;html=1;align=center;verticalAlign=middle;resizable=0;points=[];autosize=1;strokeColor=none;fillColor=none;fontFamily=Helvetica;fontSize=12;fontColor=default;" vertex="1" parent="1">
          <mxGeometry x="790" y="415" width="110" height="30" as="geometry" />
        </mxCell>
        <mxCell id="yN0ZqS6E7n7FuofRWHTt-104" value="low_fused" style="text;html=1;align=center;verticalAlign=middle;resizable=0;points=[];autosize=1;strokeColor=none;fillColor=none;fontFamily=Helvetica;fontSize=12;fontColor=default;" vertex="1" parent="1">
          <mxGeometry x="650" y="435" width="80" height="30" as="geometry" />
        </mxCell>
        <mxCell id="yN0ZqS6E7n7FuofRWHTt-140" style="edgeStyle=orthogonalEdgeStyle;rounded=0;orthogonalLoop=1;jettySize=auto;html=1;exitX=1;exitY=0.5;exitDx=0;exitDy=0;fontFamily=Helvetica;fontSize=12;fontColor=default;" edge="1" parent="1" source="yN0ZqS6E7n7FuofRWHTt-105" target="yN0ZqS6E7n7FuofRWHTt-116">
          <mxGeometry relative="1" as="geometry" />
        </mxCell>
        <mxCell id="yN0ZqS6E7n7FuofRWHTt-105" value="" style="shape=orEllipse;perimeter=ellipsePerimeter;whiteSpace=wrap;html=1;backgroundOutline=1;rounded=1;glass=0;strokeColor=default;align=center;verticalAlign=middle;fontFamily=Helvetica;fontSize=12;fontColor=default;fillColor=default;" vertex="1" parent="1">
          <mxGeometry x="890" y="190" width="20" height="20" as="geometry" />
        </mxCell>
        <mxCell id="yN0ZqS6E7n7FuofRWHTt-122" value="main_out" style="text;html=1;align=center;verticalAlign=middle;resizable=0;points=[];autosize=1;strokeColor=none;fillColor=none;fontFamily=Helvetica;fontSize=12;fontColor=default;" vertex="1" parent="1">
          <mxGeometry x="1060" y="170" width="70" height="30" as="geometry" />
        </mxCell>
        <mxCell id="yN0ZqS6E7n7FuofRWHTt-133" value="" style="endArrow=classic;html=1;rounded=0;fontFamily=Helvetica;fontSize=12;fontColor=default;entryX=0;entryY=1;entryDx=0;entryDy=0;" edge="1" parent="1" target="yN0ZqS6E7n7FuofRWHTt-105">
          <mxGeometry width="50" height="50" relative="1" as="geometry">
            <mxPoint x="710" y="430" as="sourcePoint" />
            <mxPoint x="690" y="410" as="targetPoint" />
            <Array as="points">
              <mxPoint x="710" y="207" />
            </Array>
          </mxGeometry>
        </mxCell>
        <mxCell id="yN0ZqS6E7n7FuofRWHTt-152" style="edgeStyle=orthogonalEdgeStyle;rounded=0;orthogonalLoop=1;jettySize=auto;html=1;exitX=0.5;exitY=1;exitDx=0;exitDy=0;fontFamily=Helvetica;fontSize=12;fontColor=default;" edge="1" parent="1" source="yN0ZqS6E7n7FuofRWHTt-143">
          <mxGeometry relative="1" as="geometry">
            <mxPoint x="100" y="824" as="targetPoint" />
          </mxGeometry>
        </mxCell>
        <mxCell id="yN0ZqS6E7n7FuofRWHTt-143" value="&lt;div style=&quot;line-height: 19px;&quot;&gt;&lt;font face=&quot;Consolas, Courier New, monospace&quot;&gt;&lt;span style=&quot;font-size: 14px; white-space: pre; background-color: rgb(255, 255, 255);&quot;&gt;AdaptiveAvgPool2d&lt;/span&gt;&lt;/font&gt;&lt;/div&gt;" style="rounded=1;whiteSpace=wrap;html=1;glass=0;strokeColor=default;align=center;verticalAlign=middle;fontFamily=Helvetica;fontSize=12;fontColor=default;fillColor=default;rotation=-90;" vertex="1" parent="1">
          <mxGeometry x="-15.62" y="795.63" width="137.5" height="56.25" as="geometry" />
        </mxCell>
        <mxCell id="yN0ZqS6E7n7FuofRWHTt-148" style="edgeStyle=orthogonalEdgeStyle;rounded=0;orthogonalLoop=1;jettySize=auto;html=1;exitX=1;exitY=0.5;exitDx=0;exitDy=0;entryX=0.5;entryY=0;entryDx=0;entryDy=0;fontFamily=Helvetica;fontSize=12;fontColor=default;" edge="1" parent="1" source="yN0ZqS6E7n7FuofRWHTt-144" target="yN0ZqS6E7n7FuofRWHTt-143">
          <mxGeometry relative="1" as="geometry" />
        </mxCell>
        <mxCell id="yN0ZqS6E7n7FuofRWHTt-163" style="edgeStyle=orthogonalEdgeStyle;rounded=0;orthogonalLoop=1;jettySize=auto;html=1;exitX=0.5;exitY=0;exitDx=0;exitDy=0;fontFamily=Helvetica;fontSize=12;fontColor=default;entryX=0.5;entryY=0;entryDx=0;entryDy=0;" edge="1" parent="1" source="yN0ZqS6E7n7FuofRWHTt-144" target="yN0ZqS6E7n7FuofRWHTt-157">
          <mxGeometry relative="1" as="geometry">
            <mxPoint x="510" y="670" as="targetPoint" />
            <Array as="points">
              <mxPoint x="-55" y="720" />
              <mxPoint x="448" y="720" />
            </Array>
          </mxGeometry>
        </mxCell>
        <mxCell id="yN0ZqS6E7n7FuofRWHTt-169" style="edgeStyle=orthogonalEdgeStyle;rounded=0;orthogonalLoop=1;jettySize=auto;html=1;exitX=0.5;exitY=1;exitDx=0;exitDy=0;fontFamily=Helvetica;fontSize=12;fontColor=default;entryX=0.5;entryY=1;entryDx=0;entryDy=0;" edge="1" parent="1" source="yN0ZqS6E7n7FuofRWHTt-144" target="yN0ZqS6E7n7FuofRWHTt-166">
          <mxGeometry relative="1" as="geometry">
            <mxPoint x="540" y="980" as="targetPoint" />
            <Array as="points">
              <mxPoint x="-55" y="920" />
              <mxPoint x="500" y="920" />
            </Array>
          </mxGeometry>
        </mxCell>
        <mxCell id="yN0ZqS6E7n7FuofRWHTt-144" value="X" style="rounded=1;whiteSpace=wrap;html=1;glass=0;strokeColor=default;align=center;verticalAlign=middle;fontFamily=Helvetica;fontSize=12;fontColor=default;fillColor=default;" vertex="1" parent="1">
          <mxGeometry x="-80" y="793.76" width="50" height="60" as="geometry" />
        </mxCell>
        <mxCell id="yN0ZqS6E7n7FuofRWHTt-153" style="edgeStyle=orthogonalEdgeStyle;rounded=0;orthogonalLoop=1;jettySize=auto;html=1;exitX=0.5;exitY=1;exitDx=0;exitDy=0;fontFamily=Helvetica;fontSize=12;fontColor=default;" edge="1" parent="1" source="yN0ZqS6E7n7FuofRWHTt-147">
          <mxGeometry relative="1" as="geometry">
            <mxPoint x="180" y="824" as="targetPoint" />
          </mxGeometry>
        </mxCell>
        <mxCell id="yN0ZqS6E7n7FuofRWHTt-147" value="&lt;div style=&quot;line-height: 19px;&quot;&gt;&lt;font face=&quot;Consolas, Courier New, monospace&quot;&gt;&lt;span style=&quot;font-size: 14px; white-space: pre; background-color: rgb(255, 255, 255);&quot;&gt;Conv2d（1*1）&lt;/span&gt;&lt;/font&gt;&lt;/div&gt;" style="rounded=1;whiteSpace=wrap;html=1;glass=0;strokeColor=default;align=center;verticalAlign=middle;fontFamily=Helvetica;fontSize=12;fontColor=default;fillColor=default;rotation=-90;" vertex="1" parent="1">
          <mxGeometry x="59.99500000000001" y="795.635" width="137.5" height="56.25" as="geometry" />
        </mxCell>
        <mxCell id="yN0ZqS6E7n7FuofRWHTt-154" style="edgeStyle=orthogonalEdgeStyle;rounded=0;orthogonalLoop=1;jettySize=auto;html=1;exitX=0.5;exitY=1;exitDx=0;exitDy=0;fontFamily=Helvetica;fontSize=12;fontColor=default;" edge="1" parent="1" source="yN0ZqS6E7n7FuofRWHTt-149">
          <mxGeometry relative="1" as="geometry">
            <mxPoint x="260" y="824" as="targetPoint" />
          </mxGeometry>
        </mxCell>
        <mxCell id="yN0ZqS6E7n7FuofRWHTt-149" value="&lt;div style=&quot;line-height: 19px;&quot;&gt;&lt;font face=&quot;Consolas, Courier New, monospace&quot;&gt;&lt;span style=&quot;font-size: 14px; white-space: pre; background-color: rgb(255, 255, 255);&quot;&gt;Relu&lt;/span&gt;&lt;/font&gt;&lt;/div&gt;" style="rounded=1;whiteSpace=wrap;html=1;glass=0;strokeColor=default;align=center;verticalAlign=middle;fontFamily=Helvetica;fontSize=12;fontColor=default;fillColor=default;rotation=-90;" vertex="1" parent="1">
          <mxGeometry x="139.995" y="795.635" width="137.5" height="56.25" as="geometry" />
        </mxCell>
        <mxCell id="yN0ZqS6E7n7FuofRWHTt-162" style="edgeStyle=orthogonalEdgeStyle;rounded=0;orthogonalLoop=1;jettySize=auto;html=1;exitX=0.5;exitY=1;exitDx=0;exitDy=0;entryX=0.5;entryY=0;entryDx=0;entryDy=0;fontFamily=Helvetica;fontSize=12;fontColor=default;" edge="1" parent="1" source="yN0ZqS6E7n7FuofRWHTt-150">
          <mxGeometry relative="1" as="geometry">
            <mxPoint x="435" y="825.6300000000001" as="targetPoint" />
          </mxGeometry>
        </mxCell>
        <mxCell id="yN0ZqS6E7n7FuofRWHTt-150" value="&lt;div style=&quot;line-height: 19px;&quot;&gt;&lt;font face=&quot;Consolas, Courier New, monospace&quot;&gt;&lt;span style=&quot;font-size: 14px; white-space: pre; background-color: rgb(255, 255, 255);&quot;&gt;Sigmod&lt;/span&gt;&lt;/font&gt;&lt;/div&gt;" style="rounded=1;whiteSpace=wrap;html=1;glass=0;strokeColor=default;align=center;verticalAlign=middle;fontFamily=Helvetica;fontSize=12;fontColor=default;fillColor=default;rotation=-90;" vertex="1" parent="1">
          <mxGeometry x="300.005" y="797.505" width="137.5" height="56.25" as="geometry" />
        </mxCell>
        <mxCell id="yN0ZqS6E7n7FuofRWHTt-156" style="edgeStyle=orthogonalEdgeStyle;rounded=0;orthogonalLoop=1;jettySize=auto;html=1;exitX=0.5;exitY=1;exitDx=0;exitDy=0;fontFamily=Helvetica;fontSize=12;fontColor=default;" edge="1" parent="1" source="yN0ZqS6E7n7FuofRWHTt-151">
          <mxGeometry relative="1" as="geometry">
            <mxPoint x="340" y="824" as="targetPoint" />
          </mxGeometry>
        </mxCell>
        <mxCell id="yN0ZqS6E7n7FuofRWHTt-151" value="&lt;div style=&quot;line-height: 19px;&quot;&gt;&lt;font face=&quot;Consolas, Courier New, monospace&quot;&gt;&lt;span style=&quot;font-size: 14px; white-space: pre; background-color: rgb(255, 255, 255);&quot;&gt;Conv2d（1*1）&lt;/span&gt;&lt;/font&gt;&lt;/div&gt;" style="rounded=1;whiteSpace=wrap;html=1;glass=0;strokeColor=default;align=center;verticalAlign=middle;fontFamily=Helvetica;fontSize=12;fontColor=default;fillColor=default;rotation=-90;" vertex="1" parent="1">
          <mxGeometry x="220.005" y="795.635" width="137.5" height="56.25" as="geometry" />
        </mxCell>
        <mxCell id="yN0ZqS6E7n7FuofRWHTt-219" style="edgeStyle=orthogonalEdgeStyle;rounded=0;orthogonalLoop=1;jettySize=auto;html=1;exitX=1;exitY=0.5;exitDx=0;exitDy=0;entryX=0;entryY=0.5;entryDx=0;entryDy=0;fontFamily=Helvetica;fontSize=12;fontColor=default;" edge="1" parent="1" source="yN0ZqS6E7n7FuofRWHTt-157" target="yN0ZqS6E7n7FuofRWHTt-166">
          <mxGeometry relative="1" as="geometry" />
        </mxCell>
        <mxCell id="yN0ZqS6E7n7FuofRWHTt-157" value="" style="shape=sumEllipse;perimeter=ellipsePerimeter;whiteSpace=wrap;html=1;backgroundOutline=1;rounded=1;glass=0;strokeColor=default;align=center;verticalAlign=middle;fontFamily=Helvetica;fontSize=12;fontColor=default;fillColor=default;" vertex="1" parent="1">
          <mxGeometry x="437.51" y="815.63" width="20" height="20" as="geometry" />
        </mxCell>
        <mxCell id="yN0ZqS6E7n7FuofRWHTt-170" style="edgeStyle=orthogonalEdgeStyle;rounded=0;orthogonalLoop=1;jettySize=auto;html=1;exitX=1;exitY=0.5;exitDx=0;exitDy=0;fontFamily=Helvetica;fontSize=12;fontColor=default;" edge="1" parent="1" source="yN0ZqS6E7n7FuofRWHTt-166">
          <mxGeometry relative="1" as="geometry">
            <mxPoint x="560" y="826" as="targetPoint" />
          </mxGeometry>
        </mxCell>
        <mxCell id="yN0ZqS6E7n7FuofRWHTt-166" value="" style="shape=orEllipse;perimeter=ellipsePerimeter;whiteSpace=wrap;html=1;backgroundOutline=1;rounded=1;glass=0;strokeColor=default;align=center;verticalAlign=middle;fontFamily=Helvetica;fontSize=12;fontColor=default;fillColor=default;" vertex="1" parent="1">
          <mxGeometry x="490" y="815.63" width="20" height="20" as="geometry" />
        </mxCell>
        <mxCell id="yN0ZqS6E7n7FuofRWHTt-172" value="&lt;div style=&quot;line-height: 19px;&quot;&gt;&lt;font style=&quot;font-size: 9px;&quot; face=&quot;Consolas, Courier New, monospace&quot;&gt;&lt;span style=&quot;white-space: pre; background-color: rgb(255, 255, 255);&quot;&gt;AdaptiveAvgPool2d&lt;/span&gt;&lt;/font&gt;&lt;/div&gt;" style="rounded=1;whiteSpace=wrap;html=1;glass=0;strokeColor=default;align=center;verticalAlign=middle;fontFamily=Helvetica;fontSize=12;fontColor=default;fillColor=default;rotation=-90;" vertex="1" parent="1">
          <mxGeometry x="-26.88" y="1143.45" width="96.88" height="44.37" as="geometry" />
        </mxCell>
        <mxCell id="yN0ZqS6E7n7FuofRWHTt-173" style="edgeStyle=orthogonalEdgeStyle;rounded=0;orthogonalLoop=1;jettySize=auto;html=1;exitX=1;exitY=0.5;exitDx=0;exitDy=0;entryX=0.5;entryY=0;entryDx=0;entryDy=0;fontFamily=Helvetica;fontSize=12;fontColor=default;" edge="1" parent="1" source="yN0ZqS6E7n7FuofRWHTt-176" target="yN0ZqS6E7n7FuofRWHTt-172">
          <mxGeometry relative="1" as="geometry" />
        </mxCell>
        <mxCell id="yN0ZqS6E7n7FuofRWHTt-174" style="edgeStyle=orthogonalEdgeStyle;rounded=0;orthogonalLoop=1;jettySize=auto;html=1;exitX=0.5;exitY=0;exitDx=0;exitDy=0;fontFamily=Helvetica;fontSize=12;fontColor=default;entryX=0.5;entryY=0;entryDx=0;entryDy=0;" edge="1" parent="1" source="yN0ZqS6E7n7FuofRWHTt-176" target="yN0ZqS6E7n7FuofRWHTt-186">
          <mxGeometry relative="1" as="geometry">
            <mxPoint x="505" y="1010" as="targetPoint" />
            <Array as="points">
              <mxPoint x="-60" y="1060" />
              <mxPoint x="443" y="1060" />
            </Array>
          </mxGeometry>
        </mxCell>
        <mxCell id="yN0ZqS6E7n7FuofRWHTt-175" style="edgeStyle=orthogonalEdgeStyle;rounded=0;orthogonalLoop=1;jettySize=auto;html=1;exitX=0.5;exitY=1;exitDx=0;exitDy=0;fontFamily=Helvetica;fontSize=12;fontColor=default;entryX=0.5;entryY=1;entryDx=0;entryDy=0;" edge="1" parent="1" source="yN0ZqS6E7n7FuofRWHTt-176" target="yN0ZqS6E7n7FuofRWHTt-188">
          <mxGeometry relative="1" as="geometry">
            <mxPoint x="535" y="1320" as="targetPoint" />
            <Array as="points">
              <mxPoint x="-60" y="1260" />
              <mxPoint x="495" y="1260" />
            </Array>
          </mxGeometry>
        </mxCell>
        <mxCell id="yN0ZqS6E7n7FuofRWHTt-176" value="X" style="rounded=1;whiteSpace=wrap;html=1;glass=0;strokeColor=default;align=center;verticalAlign=middle;fontFamily=Helvetica;fontSize=12;fontColor=default;fillColor=default;" vertex="1" parent="1">
          <mxGeometry x="-70" y="1146.88" width="30" height="33.76" as="geometry" />
        </mxCell>
        <mxCell id="yN0ZqS6E7n7FuofRWHTt-177" style="edgeStyle=orthogonalEdgeStyle;rounded=0;orthogonalLoop=1;jettySize=auto;html=1;exitX=0.5;exitY=1;exitDx=0;exitDy=0;fontFamily=Helvetica;fontSize=12;fontColor=default;" edge="1" parent="1">
          <mxGeometry relative="1" as="geometry">
            <mxPoint x="-23.430000000000007" y="1920.24" as="targetPoint" />
            <mxPoint x="-46.560000000000116" y="1920" as="sourcePoint" />
          </mxGeometry>
        </mxCell>
        <mxCell id="yN0ZqS6E7n7FuofRWHTt-180" value="&lt;div style=&quot;line-height: 19px;&quot;&gt;&lt;font face=&quot;Consolas, Courier New, monospace&quot;&gt;&lt;span style=&quot;font-size: 14px; white-space: pre; background-color: rgb(255, 255, 255);&quot;&gt;Relu&lt;/span&gt;&lt;/font&gt;&lt;/div&gt;" style="rounded=1;whiteSpace=wrap;html=1;glass=0;strokeColor=default;align=center;verticalAlign=middle;fontFamily=Helvetica;fontSize=12;fontColor=default;fillColor=default;rotation=-90;" vertex="1" parent="1">
          <mxGeometry x="230" y="1630" width="105.01" height="41.24" as="geometry" />
        </mxCell>
        <mxCell id="yN0ZqS6E7n7FuofRWHTt-182" value="&lt;div style=&quot;line-height: 19px;&quot;&gt;&lt;font face=&quot;Consolas, Courier New, monospace&quot;&gt;&lt;span style=&quot;font-size: 14px; white-space: pre; background-color: rgb(255, 255, 255);&quot;&gt;Sigmod&lt;/span&gt;&lt;/font&gt;&lt;/div&gt;" style="rounded=1;whiteSpace=wrap;html=1;glass=0;strokeColor=default;align=center;verticalAlign=middle;fontFamily=Helvetica;fontSize=12;fontColor=default;fillColor=default;rotation=-90;" vertex="1" parent="1">
          <mxGeometry x="347.495" y="1699.9950000000001" width="137.5" height="56.25" as="geometry" />
        </mxCell>
        <mxCell id="yN0ZqS6E7n7FuofRWHTt-184" value="&lt;div style=&quot;line-height: 19px;&quot;&gt;&lt;font face=&quot;Consolas, Courier New, monospace&quot;&gt;&lt;span style=&quot;font-size: 14px; white-space: pre; background-color: rgb(255, 255, 255);&quot;&gt;Conv2d（1*1）&lt;/span&gt;&lt;/font&gt;&lt;/div&gt;" style="rounded=1;whiteSpace=wrap;html=1;glass=0;strokeColor=default;align=center;verticalAlign=middle;fontFamily=Helvetica;fontSize=12;fontColor=default;fillColor=default;rotation=-90;" vertex="1" parent="1">
          <mxGeometry x="639.995" y="1630.005" width="137.5" height="56.25" as="geometry" />
        </mxCell>
        <mxCell id="yN0ZqS6E7n7FuofRWHTt-186" value="" style="shape=sumEllipse;perimeter=ellipsePerimeter;whiteSpace=wrap;html=1;backgroundOutline=1;rounded=1;glass=0;strokeColor=default;align=center;verticalAlign=middle;fontFamily=Helvetica;fontSize=12;fontColor=default;fillColor=default;" vertex="1" parent="1">
          <mxGeometry x="432.51" y="1155.63" width="20" height="20" as="geometry" />
        </mxCell>
        <mxCell id="yN0ZqS6E7n7FuofRWHTt-187" style="edgeStyle=orthogonalEdgeStyle;rounded=0;orthogonalLoop=1;jettySize=auto;html=1;exitX=1;exitY=0.5;exitDx=0;exitDy=0;fontFamily=Helvetica;fontSize=12;fontColor=default;" edge="1" parent="1" source="yN0ZqS6E7n7FuofRWHTt-188">
          <mxGeometry relative="1" as="geometry">
            <mxPoint x="555" y="1166" as="targetPoint" />
          </mxGeometry>
        </mxCell>
        <mxCell id="yN0ZqS6E7n7FuofRWHTt-189" value="&lt;div style=&quot;line-height: 19px;&quot;&gt;&lt;span style=&quot;font-family: Consolas, &amp;quot;Courier New&amp;quot;, monospace; white-space: pre; background-color: rgb(255, 255, 255);&quot;&gt;&lt;font style=&quot;font-size: 9px;&quot;&gt;Conv2d（1*1）&lt;/font&gt;&lt;/span&gt;&lt;/div&gt;" style="rounded=1;whiteSpace=wrap;html=1;glass=0;strokeColor=default;align=center;verticalAlign=middle;fontFamily=Helvetica;fontSize=12;fontColor=default;fillColor=default;rotation=-90;" vertex="1" parent="1">
          <mxGeometry x="43.11499999999995" y="1143.4450000000002" width="96.88" height="44.37" as="geometry" />
        </mxCell>
        <mxCell id="yN0ZqS6E7n7FuofRWHTt-190" value="&lt;div style=&quot;line-height: 19px;&quot;&gt;&lt;span style=&quot;font-family: Consolas, &amp;quot;Courier New&amp;quot;, monospace; white-space: pre; background-color: rgb(255, 255, 255);&quot;&gt;&lt;font style=&quot;font-size: 9px;&quot;&gt;Conv2d（1*1）&lt;/font&gt;&lt;/span&gt;&lt;/div&gt;" style="rounded=1;whiteSpace=wrap;html=1;glass=0;strokeColor=default;align=center;verticalAlign=middle;fontFamily=Helvetica;fontSize=12;fontColor=default;fillColor=default;rotation=-90;" vertex="1" parent="1">
          <mxGeometry x="111.24499999999995" y="1143.4450000000002" width="96.88" height="44.37" as="geometry" />
        </mxCell>
        <mxCell id="yN0ZqS6E7n7FuofRWHTt-191" value="&lt;div style=&quot;line-height: 19px;&quot;&gt;&lt;span style=&quot;font-family: Consolas, &amp;quot;Courier New&amp;quot;, monospace; white-space: pre; background-color: rgb(255, 255, 255);&quot;&gt;&lt;font style=&quot;font-size: 9px;&quot;&gt;Conv2d（1*1）&lt;/font&gt;&lt;/span&gt;&lt;/div&gt;" style="rounded=1;whiteSpace=wrap;html=1;glass=0;strokeColor=default;align=center;verticalAlign=middle;fontFamily=Helvetica;fontSize=12;fontColor=default;fillColor=default;rotation=-90;" vertex="1" parent="1">
          <mxGeometry x="180.61499999999995" y="1143.4450000000002" width="96.88" height="44.37" as="geometry" />
        </mxCell>
        <mxCell id="yN0ZqS6E7n7FuofRWHTt-192" value="&lt;div style=&quot;line-height: 19px;&quot;&gt;&lt;span style=&quot;font-family: Consolas, &amp;quot;Courier New&amp;quot;, monospace; white-space: pre; background-color: rgb(255, 255, 255);&quot;&gt;&lt;font style=&quot;font-size: 9px;&quot;&gt;Conv2d（1*1）&lt;/font&gt;&lt;/span&gt;&lt;/div&gt;" style="rounded=1;whiteSpace=wrap;html=1;glass=0;strokeColor=default;align=center;verticalAlign=middle;fontFamily=Helvetica;fontSize=12;fontColor=default;fillColor=default;rotation=-90;" vertex="1" parent="1">
          <mxGeometry x="313.74499999999995" y="1376.255" width="96.88" height="44.37" as="geometry" />
        </mxCell>
        <mxCell id="yN0ZqS6E7n7FuofRWHTt-194" value="&lt;div style=&quot;line-height: 19px;&quot;&gt;&lt;font face=&quot;Consolas, Courier New, monospace&quot;&gt;&lt;span style=&quot;font-size: 14px; white-space: pre;&quot;&gt;AMP&lt;/span&gt;&lt;/font&gt;&lt;/div&gt;" style="rounded=1;whiteSpace=wrap;html=1;glass=0;strokeColor=default;align=center;verticalAlign=middle;fontFamily=Helvetica;fontSize=12;fontColor=default;fillColor=default;rotation=-90;" vertex="1" parent="1">
          <mxGeometry x="711.89" y="1050" width="88.75" height="52.5" as="geometry" />
        </mxCell>
        <mxCell id="yN0ZqS6E7n7FuofRWHTt-196" value="&lt;div style=&quot;line-height: 19px;&quot;&gt;&lt;font face=&quot;Consolas, Courier New, monospace&quot;&gt;&lt;span style=&quot;font-size: 14px; white-space: pre; background-color: rgb(255, 255, 255);&quot;&gt;Concat&lt;/span&gt;&lt;/font&gt;&lt;/div&gt;" style="rounded=1;whiteSpace=wrap;html=1;glass=0;strokeColor=default;align=center;verticalAlign=middle;fontFamily=Helvetica;fontSize=12;fontColor=default;fillColor=default;rotation=-90;" vertex="1" parent="1">
          <mxGeometry x="1280" y="900" width="117.5" height="46.26" as="geometry" />
        </mxCell>
        <mxCell id="yN0ZqS6E7n7FuofRWHTt-195" value="&lt;div style=&quot;line-height: 19px;&quot;&gt;&lt;font face=&quot;Consolas, Courier New, monospace&quot;&gt;&lt;span style=&quot;font-size: 14px; white-space: pre;&quot;&gt;AAP&lt;/span&gt;&lt;/font&gt;&lt;/div&gt;" style="rounded=1;whiteSpace=wrap;html=1;glass=0;strokeColor=default;align=center;verticalAlign=middle;fontFamily=Helvetica;fontSize=12;fontColor=default;fillColor=default;rotation=-90;" vertex="1" parent="1">
          <mxGeometry x="713.14" y="1158.75" width="93.75" height="50" as="geometry" />
        </mxCell>
        <mxCell id="yN0ZqS6E7n7FuofRWHTt-202" value="" style="endArrow=classic;html=1;rounded=0;fontFamily=Helvetica;fontSize=12;fontColor=default;exitX=0.5;exitY=1;exitDx=0;exitDy=0;" edge="1" parent="1" source="yN0ZqS6E7n7FuofRWHTt-195">
          <mxGeometry width="50" height="50" relative="1" as="geometry">
            <mxPoint x="802.51" y="1188.75" as="sourcePoint" />
            <mxPoint x="852.51" y="1138.75" as="targetPoint" />
          </mxGeometry>
        </mxCell>
        <mxCell id="yN0ZqS6E7n7FuofRWHTt-203" value="" style="endArrow=classic;html=1;rounded=0;fontFamily=Helvetica;fontSize=12;fontColor=default;exitX=0.5;exitY=1;exitDx=0;exitDy=0;" edge="1" parent="1" source="yN0ZqS6E7n7FuofRWHTt-194">
          <mxGeometry width="50" height="50" relative="1" as="geometry">
            <mxPoint x="792.51" y="1084.37" as="sourcePoint" />
            <mxPoint x="852.51" y="1114.37" as="targetPoint" />
          </mxGeometry>
        </mxCell>
        <mxCell id="yN0ZqS6E7n7FuofRWHTt-204" value="&lt;div style=&quot;line-height: 19px;&quot;&gt;&lt;font face=&quot;Consolas, Courier New, monospace&quot;&gt;&lt;span style=&quot;font-size: 14px; white-space: pre; background-color: rgb(255, 255, 255);&quot;&gt;Concat&lt;/span&gt;&lt;/font&gt;&lt;/div&gt;" style="rounded=1;whiteSpace=wrap;html=1;glass=0;strokeColor=default;align=center;verticalAlign=middle;fontFamily=Helvetica;fontSize=12;fontColor=default;fillColor=default;rotation=-90;" vertex="1" parent="1">
          <mxGeometry x="1230" y="910" width="117.5" height="46.26" as="geometry" />
        </mxCell>
        <mxCell id="yN0ZqS6E7n7FuofRWHTt-205" value="&lt;div style=&quot;line-height: 19px;&quot;&gt;&lt;font face=&quot;Consolas, Courier New, monospace&quot;&gt;&lt;span style=&quot;font-size: 14px; white-space: pre; background-color: rgb(255, 255, 255);&quot;&gt;Concat&lt;/span&gt;&lt;/font&gt;&lt;/div&gt;" style="rounded=1;whiteSpace=wrap;html=1;glass=0;strokeColor=default;align=center;verticalAlign=middle;fontFamily=Helvetica;fontSize=12;fontColor=default;fillColor=default;rotation=-90;" vertex="1" parent="1">
          <mxGeometry x="1130" y="795.63" width="117.5" height="46.26" as="geometry" />
        </mxCell>
        <mxCell id="yN0ZqS6E7n7FuofRWHTt-216" style="edgeStyle=orthogonalEdgeStyle;rounded=0;orthogonalLoop=1;jettySize=auto;html=1;exitX=0.5;exitY=1;exitDx=0;exitDy=0;fontFamily=Helvetica;fontSize=12;fontColor=default;" edge="1" parent="1" source="yN0ZqS6E7n7FuofRWHTt-206">
          <mxGeometry relative="1" as="geometry">
            <mxPoint x="930" y="1127" as="targetPoint" />
          </mxGeometry>
        </mxCell>
        <mxCell id="yN0ZqS6E7n7FuofRWHTt-206" value="&lt;div style=&quot;line-height: 19px;&quot;&gt;&lt;font face=&quot;Consolas, Courier New, monospace&quot;&gt;&lt;span style=&quot;font-size: 14px; white-space: pre; background-color: rgb(255, 255, 255);&quot;&gt;Concat&lt;/span&gt;&lt;/font&gt;&lt;/div&gt;" style="rounded=1;whiteSpace=wrap;html=1;glass=0;strokeColor=default;align=center;verticalAlign=middle;fontFamily=Helvetica;fontSize=12;fontColor=default;fillColor=default;rotation=-90;" vertex="1" parent="1">
          <mxGeometry x="812.505" y="1099.365" width="137.5" height="56.25" as="geometry" />
        </mxCell>
        <mxCell id="yN0ZqS6E7n7FuofRWHTt-217" style="edgeStyle=orthogonalEdgeStyle;rounded=0;orthogonalLoop=1;jettySize=auto;html=1;exitX=0.5;exitY=1;exitDx=0;exitDy=0;fontFamily=Helvetica;fontSize=12;fontColor=default;" edge="1" parent="1" source="yN0ZqS6E7n7FuofRWHTt-207">
          <mxGeometry relative="1" as="geometry">
            <mxPoint x="1010" y="1127" as="targetPoint" />
          </mxGeometry>
        </mxCell>
        <mxCell id="yN0ZqS6E7n7FuofRWHTt-207" value="&lt;div style=&quot;line-height: 19px;&quot;&gt;&lt;font face=&quot;Consolas, Courier New, monospace&quot;&gt;&lt;span style=&quot;font-size: 14px; white-space: pre; background-color: rgb(255, 255, 255);&quot;&gt;Conv2d(7*7)&lt;/span&gt;&lt;/font&gt;&lt;/div&gt;" style="rounded=1;whiteSpace=wrap;html=1;glass=0;strokeColor=default;align=center;verticalAlign=middle;fontFamily=Helvetica;fontSize=12;fontColor=default;fillColor=default;rotation=-90;" vertex="1" parent="1">
          <mxGeometry x="891.255" y="1099.365" width="137.5" height="56.25" as="geometry" />
        </mxCell>
        <mxCell id="yN0ZqS6E7n7FuofRWHTt-210" style="edgeStyle=orthogonalEdgeStyle;rounded=0;orthogonalLoop=1;jettySize=auto;html=1;exitX=0.5;exitY=1;exitDx=0;exitDy=0;entryX=0;entryY=0.5;entryDx=0;entryDy=0;fontFamily=Helvetica;fontSize=12;fontColor=default;" edge="1" parent="1" source="yN0ZqS6E7n7FuofRWHTt-208" target="yN0ZqS6E7n7FuofRWHTt-209">
          <mxGeometry relative="1" as="geometry" />
        </mxCell>
        <mxCell id="yN0ZqS6E7n7FuofRWHTt-208" value="&lt;div style=&quot;line-height: 19px;&quot;&gt;&lt;font face=&quot;Consolas, Courier New, monospace&quot;&gt;&lt;span style=&quot;font-size: 14px; white-space: pre; background-color: rgb(255, 255, 255);&quot;&gt;Sigmod&lt;/span&gt;&lt;/font&gt;&lt;/div&gt;" style="rounded=1;whiteSpace=wrap;html=1;glass=0;strokeColor=default;align=center;verticalAlign=middle;fontFamily=Helvetica;fontSize=12;fontColor=default;fillColor=default;rotation=-90;" vertex="1" parent="1">
          <mxGeometry x="969.995" y="1099.365" width="137.5" height="56.25" as="geometry" />
        </mxCell>
        <mxCell id="yN0ZqS6E7n7FuofRWHTt-220" style="edgeStyle=orthogonalEdgeStyle;rounded=0;orthogonalLoop=1;jettySize=auto;html=1;exitX=1;exitY=0.5;exitDx=0;exitDy=0;entryX=0;entryY=0.5;entryDx=0;entryDy=0;fontFamily=Helvetica;fontSize=12;fontColor=default;" edge="1" parent="1" source="yN0ZqS6E7n7FuofRWHTt-209" target="yN0ZqS6E7n7FuofRWHTt-218">
          <mxGeometry relative="1" as="geometry" />
        </mxCell>
        <mxCell id="yN0ZqS6E7n7FuofRWHTt-209" value="" style="shape=sumEllipse;perimeter=ellipsePerimeter;whiteSpace=wrap;html=1;backgroundOutline=1;rounded=1;glass=0;strokeColor=default;align=center;verticalAlign=middle;fontFamily=Helvetica;fontSize=12;fontColor=default;fillColor=default;" vertex="1" parent="1">
          <mxGeometry x="1120" y="1117.49" width="20" height="20" as="geometry" />
        </mxCell>
        <mxCell id="yN0ZqS6E7n7FuofRWHTt-221" style="edgeStyle=orthogonalEdgeStyle;rounded=0;orthogonalLoop=1;jettySize=auto;html=1;exitX=0.5;exitY=0;exitDx=0;exitDy=0;entryX=0.5;entryY=0;entryDx=0;entryDy=0;fontFamily=Helvetica;fontSize=12;fontColor=default;" edge="1" parent="1" source="yN0ZqS6E7n7FuofRWHTt-212" target="yN0ZqS6E7n7FuofRWHTt-209">
          <mxGeometry relative="1" as="geometry">
            <Array as="points">
              <mxPoint x="655" y="1010" />
              <mxPoint x="1130" y="1010" />
            </Array>
          </mxGeometry>
        </mxCell>
        <mxCell id="yN0ZqS6E7n7FuofRWHTt-222" style="edgeStyle=orthogonalEdgeStyle;rounded=0;orthogonalLoop=1;jettySize=auto;html=1;exitX=0.5;exitY=1;exitDx=0;exitDy=0;entryX=0.5;entryY=1;entryDx=0;entryDy=0;fontFamily=Helvetica;fontSize=12;fontColor=default;" edge="1" parent="1" source="yN0ZqS6E7n7FuofRWHTt-212" target="yN0ZqS6E7n7FuofRWHTt-218">
          <mxGeometry relative="1" as="geometry">
            <Array as="points">
              <mxPoint x="655" y="1240" />
              <mxPoint x="1180" y="1240" />
            </Array>
          </mxGeometry>
        </mxCell>
        <mxCell id="yN0ZqS6E7n7FuofRWHTt-212" value="X2" style="rounded=1;whiteSpace=wrap;html=1;glass=0;strokeColor=default;align=center;verticalAlign=middle;fontFamily=Helvetica;fontSize=12;fontColor=default;fillColor=default;" vertex="1" parent="1">
          <mxGeometry x="630" y="1095.62" width="50" height="60" as="geometry" />
        </mxCell>
        <mxCell id="yN0ZqS6E7n7FuofRWHTt-213" value="" style="endArrow=classic;html=1;rounded=0;fontFamily=Helvetica;fontSize=12;fontColor=default;exitX=1;exitY=0.5;exitDx=0;exitDy=0;entryX=0.5;entryY=0;entryDx=0;entryDy=0;" edge="1" parent="1" source="yN0ZqS6E7n7FuofRWHTt-212" target="yN0ZqS6E7n7FuofRWHTt-195">
          <mxGeometry width="50" height="50" relative="1" as="geometry">
            <mxPoint x="920" y="1202.49" as="sourcePoint" />
            <mxPoint x="970" y="1152.49" as="targetPoint" />
          </mxGeometry>
        </mxCell>
        <mxCell id="yN0ZqS6E7n7FuofRWHTt-214" value="" style="endArrow=classic;html=1;rounded=0;fontFamily=Helvetica;fontSize=12;fontColor=default;" edge="1" parent="1">
          <mxGeometry width="50" height="50" relative="1" as="geometry">
            <mxPoint x="680" y="1122.49" as="sourcePoint" />
            <mxPoint x="730" y="1072.49" as="targetPoint" />
          </mxGeometry>
        </mxCell>
        <mxCell id="yN0ZqS6E7n7FuofRWHTt-215" value="X2" style="rounded=1;whiteSpace=wrap;html=1;glass=0;strokeColor=default;align=center;verticalAlign=middle;fontFamily=Helvetica;fontSize=12;fontColor=default;fillColor=default;" vertex="1" parent="1">
          <mxGeometry x="560" y="791.89" width="50" height="60" as="geometry" />
        </mxCell>
        <mxCell id="yN0ZqS6E7n7FuofRWHTt-224" style="edgeStyle=orthogonalEdgeStyle;rounded=0;orthogonalLoop=1;jettySize=auto;html=1;exitX=1;exitY=0.5;exitDx=0;exitDy=0;entryX=0;entryY=0.5;entryDx=0;entryDy=0;fontFamily=Helvetica;fontSize=12;fontColor=default;" edge="1" parent="1" source="yN0ZqS6E7n7FuofRWHTt-218" target="yN0ZqS6E7n7FuofRWHTt-223">
          <mxGeometry relative="1" as="geometry" />
        </mxCell>
        <mxCell id="yN0ZqS6E7n7FuofRWHTt-218" value="" style="shape=orEllipse;perimeter=ellipsePerimeter;whiteSpace=wrap;html=1;backgroundOutline=1;rounded=1;glass=0;strokeColor=default;align=center;verticalAlign=middle;fontFamily=Helvetica;fontSize=12;fontColor=default;fillColor=default;" vertex="1" parent="1">
          <mxGeometry x="1170" y="1117.49" width="20" height="20" as="geometry" />
        </mxCell>
        <mxCell id="yN0ZqS6E7n7FuofRWHTt-223" value="X3" style="rounded=1;whiteSpace=wrap;html=1;glass=0;strokeColor=default;align=center;verticalAlign=middle;fontFamily=Helvetica;fontSize=12;fontColor=default;fillColor=default;" vertex="1" parent="1">
          <mxGeometry x="1230" y="1097.4899999999998" width="50" height="60" as="geometry" />
        </mxCell>
      </root>
    </mxGraphModel>
  </diagram>
</mxfile>
